<svg width="56" height="56" viewBox="0 0 56 56" fill="none" xmlns="http://www.w3.org/2000/svg">
<g id="Group 1171274771">
<rect id="Rectangle 4780" width="56" height="56" rx="28" fill="#F2F6FA"/>
<g id="Group 1171274778">
<path id="Vector" d="M23.3386 18.2959C23.9193 15.835 26.1777 14 28.875 14C31.5724 14 33.8307 15.835 34.4114 18.2959L34.654 18.3453C38.3644 19.1005 41.3191 21.8374 42.2862 25.4148C43.0713 28.3187 43.0713 31.3718 42.2862 34.2758C41.3191 37.8531 38.3644 40.59 34.654 41.3452L33.945 41.4895C30.601 42.1702 27.149 42.1702 23.805 41.4895L23.096 41.3452C19.3856 40.59 16.4309 37.8531 15.4638 34.2758C14.6787 31.3718 14.6787 28.3187 15.4638 25.4147C16.4309 21.8374 19.3856 19.1005 23.096 18.3453L23.3386 18.2959Z" stroke="#2A2A2A" stroke-width="1.5" stroke-linejoin="round"/>
<path id="Vector_2" d="M24.9892 29.5343C24.9892 27.3866 26.7303 25.6454 28.8781 25.6454C31.0259 25.6454 32.767 27.3866 32.767 29.5343C32.767 31.6821 31.0259 33.4232 28.8781 33.4232C26.7303 33.4232 24.9892 31.6821 24.9892 29.5343Z" stroke="#2A2A2A" stroke-width="1.5"/>
</g>
</g>
</svg>
