<svg width="64" height="64" viewBox="0 0 64 64" fill="none" xmlns="http://www.w3.org/2000/svg">
<g id="Stretching">
<path id="Vector" d="M32 6C30.6739 6 29.4021 6.52678 28.4645 7.46446C27.5268 8.40215 27 9.67392 27 11C27 12.3261 27.5268 13.5978 28.4645 14.5355C29.4021 15.4732 30.6739 16 32 16C33.3261 16 34.5979 15.4732 35.5355 14.5355C36.4732 13.5978 37 12.3261 37 11C37 9.67392 36.4732 8.40215 35.5355 7.46446C34.5979 6.52678 33.3261 6 32 6ZM18.18 6.008C17.786 5.97261 17.3904 6.05484 17.0432 6.2443C16.6959 6.43375 16.4127 6.72192 16.2292 7.07237C16.0457 7.42281 15.9703 7.81979 16.0125 8.2131C16.0546 8.60641 16.2124 8.97839 16.466 9.282L26 20.71V26.33C20.528 26.948 16 28.462 16 31C16 33.538 20.528 35.052 26 35.672V35.804L22.04 55.61C21.9559 56.1216 22.0737 56.646 22.3687 57.0724C22.6637 57.4988 23.1128 57.794 23.6213 57.8957C24.1297 57.9974 24.6578 57.8976 25.0941 57.6175C25.5304 57.3373 25.8409 56.8986 25.96 56.394L28.84 42H35.16L38.04 56.39C38.082 56.656 38.1774 56.9108 38.3203 57.1391C38.4632 57.3674 38.6507 57.5644 38.8717 57.7185C39.0926 57.8725 39.3424 57.9803 39.606 58.0355C39.8696 58.0906 40.1416 58.0919 40.4058 58.0394C40.6699 57.9868 40.9208 57.8815 41.1432 57.7296C41.3656 57.5777 41.5551 57.3825 41.7002 57.1557C41.8454 56.9288 41.9432 56.6749 41.9878 56.4093C42.0325 56.1437 42.023 55.8719 41.96 55.61L38 35.8V35.672C43.472 35.052 48 33.538 48 31C48 28.462 43.472 26.948 38 26.328V20.728L47.536 9.282C47.8758 8.87416 48.0399 8.34816 47.9923 7.81946C47.9446 7.29076 47.6892 6.80256 47.282 6.462C46.874 6.12306 46.3483 5.95969 45.8201 6.00767C45.2919 6.05566 44.8042 6.31109 44.464 6.718L35.064 18H28.95L19.536 6.72C19.3682 6.51764 19.162 6.35053 18.9292 6.22832C18.6965 6.10612 18.4418 6.03123 18.18 6.008ZM26 28.336V33.664C20.712 33.034 18 31.676 18 31C18 30.324 20.712 28.966 26 28.336ZM38 28.336C43.288 28.966 46 30.324 46 31C46 31.676 43.288 33.034 38 33.664V28.336Z" fill="#181A20"/>
</g>
</svg>
