<svg width="64" height="64" viewBox="0 0 64 64" fill="none" xmlns="http://www.w3.org/2000/svg">
<g id="Waiting">
<path id="Vector" d="M31.996 0C30.4047 0 28.8786 0.632141 27.7534 1.75736C26.6281 2.88258 25.996 4.4087 25.996 6C25.996 7.5913 26.6281 9.11742 27.7534 10.2426C28.8786 11.3679 30.4047 12 31.996 12C33.5873 12 35.1134 11.3679 36.2386 10.2426C37.3639 9.11742 37.996 7.5913 37.996 6C37.996 4.4087 37.3639 2.88258 36.2386 1.75736C35.1134 0.632141 33.5873 0 31.996 0ZM25.996 14C25.982 14 25.968 14.008 25.954 14.008C25.5533 14.0001 25.1552 14.073 24.7834 14.2225C24.4115 14.372 24.0737 14.5949 23.79 14.878L14.836 23.832C14.2736 24.3946 13.9576 25.1575 13.9576 25.953C13.9576 26.7485 14.2736 27.5114 14.836 28.074L23.886 37.122C23.92 37.154 24 37.164 24 37.196V61C24 61.7957 24.3161 62.5587 24.8787 63.1213C25.4413 63.6839 26.2044 64 27 64C27.7957 64 28.5587 63.6839 29.1213 63.1213C29.6839 62.5587 30 61.7957 30 61V46H34V61C34 61.7957 34.3161 62.5587 34.8787 63.1213C35.4413 63.6839 36.2044 64 37 64C37.7956 64 38.5587 63.6839 39.1213 63.1213C39.6839 62.5587 40 61.7957 40 61V37.204C40 37.17 40.08 37.156 40.118 37.122L49.164 28.074C49.7264 27.5114 50.0424 26.7485 50.0424 25.953C50.0424 25.1575 49.7264 24.3946 49.164 23.832L40.21 14.878C39.612 14.28 38.826 13.994 38.042 14.008C38.026 14.008 38.012 14 37.996 14H25.996ZM40 23.148L42.804 25.954L40 28.758V23.148ZM24 23.16V28.746L21.208 25.954L24 23.16Z" fill="#181A20"/>
</g>
</svg>
