<svg width="64" height="64" viewBox="0 0 64 64" fill="none" xmlns="http://www.w3.org/2000/svg">
<g id="Walking">
<path id="Vector" d="M41.6669 10.6667C41.6669 13.6121 39.2792 16 36.3336 16C33.3881 16 31.0003 13.6121 31.0003 10.6667C31.0003 7.72115 33.3881 5.33334 36.3336 5.33334C39.2792 5.33334 41.6669 7.72115 41.6669 10.6667ZM34.2571 37.8624L41.1809 44.6943C41.4464 44.9563 41.654 45.2711 41.7903 45.6183L45.4827 55.0257C46.0207 56.3967 45.3455 57.9443 43.9745 58.4823C42.6036 59.0204 41.0561 58.3452 40.518 56.9743L37.0324 48.0933L25.1273 36.3464C24.5449 35.7717 24.2585 34.9615 24.3505 34.1484L25.3041 25.7225C23.0056 28.0061 21.2325 31.2191 19.8737 35.476C19.426 36.8789 17.9256 37.6533 16.5225 37.2055C15.1195 36.7576 14.3452 35.2572 14.7931 33.8543C17.2867 26.0416 21.4268 20.1939 28.3729 17.5121L28.4045 17.5001C30.1735 16.8428 32.014 16.8957 33.6531 17.7432C35.2285 18.5576 36.3499 19.9641 37.0841 21.5405C37.3932 22.2043 37.6792 22.8245 37.9476 23.4068C38.598 24.8172 39.1459 26.0055 39.6713 27.0497C40.4097 28.5169 41.0031 29.4881 41.5895 30.1713C42.1331 30.8045 42.674 31.1936 43.3633 31.4627C44.1043 31.7521 45.1429 31.9515 46.7467 31.9996C48.2188 32.0437 49.3764 33.2729 49.3323 34.7451C49.288 36.2171 48.0589 37.3747 46.5868 37.3305C44.6603 37.2728 42.9495 37.0267 41.4231 36.4307C39.8451 35.8144 38.6008 34.8779 37.5427 33.6452C36.8753 32.8677 36.2901 31.9812 35.7416 31.0161L34.2571 37.8624Z" fill="#1F2024"/>
<path id="Vector_2" d="M24.3503 40.2931L28.7704 44.5325L26.7365 51.396C26.5791 51.9271 26.2603 52.396 25.8241 52.7375L18.978 58.1007C17.8187 59.0088 16.1425 58.8052 15.2343 57.6459C14.326 56.4865 14.5296 54.8104 15.6891 53.9021L21.8649 49.0641L23.7259 42.7841L24.3503 40.2931Z" fill="#1F2024"/>
</g>
</svg>
