<svg width="64" height="64" viewBox="0 0 64 64" fill="none" xmlns="http://www.w3.org/2000/svg">
<g id="Work">
<path id="Vector" d="M14 4C12.4087 4 10.8826 4.63214 9.75736 5.75736C8.63214 6.88258 8 8.4087 8 10C8 11.5913 8.63214 13.1174 9.75736 14.2426C10.8826 15.3679 12.4087 16 14 16C15.5913 16 17.1174 15.3679 18.2426 14.2426C19.3679 13.1174 20 11.5913 20 10C20 8.4087 19.3679 6.88258 18.2426 5.75736C17.1174 4.63214 15.5913 4 14 4ZM48.062 12C47.866 11.989 47.671 12.0356 47.5011 12.134C47.3313 12.2324 47.1939 12.3784 47.106 12.554L41.106 24.55C40.9867 24.7871 40.9664 25.0619 41.0496 25.314C41.1329 25.566 41.3129 25.7747 41.55 25.894C41.7871 26.0133 42.0619 26.0336 42.314 25.9503C42.566 25.8671 42.7747 25.6871 42.894 25.45L45 21.234V28H44C43.7348 28 43.4804 28.1054 43.2929 28.2929C43.1054 28.4804 43 28.7348 43 29C43 29.2652 43.1054 29.5196 43.2929 29.7071C43.4804 29.8946 43.7348 30 44 30H48C48.2652 30 48.5196 29.8946 48.7071 29.7071C48.8946 29.5196 49 29.2652 49 29C49 28.7348 48.8946 28.4804 48.7071 28.2929C48.5196 28.1054 48.2652 28 48 28H47V17.292C47 17.278 46.992 17.268 46.992 17.254L48.894 13.446C48.9686 13.2983 49.0052 13.1344 49.0007 12.969C48.9962 12.8036 48.9506 12.6419 48.8681 12.4985C48.7856 12.3551 48.6687 12.2345 48.528 12.1475C48.3873 12.0604 48.2272 12.0098 48.062 12ZM13 17.344C11.4087 17.344 9.88258 17.9761 8.75736 19.1014C7.63214 20.2266 7 21.7527 7 23.344V38C7 39.5913 7.63214 41.1174 8.75736 42.2426C9.88258 43.3679 11.4087 44 13 44H23V57C23 57.7956 23.3161 58.5587 23.8787 59.1213C24.4413 59.6839 25.2044 60 26 60C26.7956 60 27.5587 59.6839 28.1213 59.1213C28.6839 58.5587 29 57.7956 29 57V41C29 40.2043 28.6839 39.4413 28.1213 38.8787C27.5587 38.3161 26.7956 38 26 38H19V27.52L22.468 29.58C22.932 29.854 23.46 30 24 30H32C32.458 30 32.886 29.89 33.274 29.708C33.454 29.888 33.708 30 33.984 30H38C38.2652 30 38.5196 29.8946 38.7071 29.7071C38.8946 29.5196 39 29.2652 39 29C39 28.7348 38.8946 28.4804 38.7071 28.2929C38.5196 28.1054 38.2652 28 38 28H34.816C34.928 27.686 35 27.352 35 27C35 26.2043 34.6839 25.4413 34.1213 24.8787C33.5587 24.3161 32.7956 24 32 24H24.824L17.886 19.88C17.3344 19.0966 16.6026 18.4571 15.7524 18.0155C14.9021 17.5738 13.9581 17.3428 13 17.342V17.344ZM3.004 27.984C2.47357 27.984 1.96486 28.1947 1.58979 28.5698C1.21471 28.9449 1.004 29.4536 1.004 29.984L1 48C1.00032 48.3926 1.11617 48.7764 1.33312 49.1036C1.55006 49.4308 1.8585 49.6869 2.22 49.84L2.222 49.844C2.462 49.944 2.722 50 3 50H9V55.372L5.36 58.196C5.25022 58.2742 5.15739 58.3738 5.08709 58.4889C5.01679 58.6039 4.97047 58.7319 4.95092 58.8653C4.93137 58.9987 4.93898 59.1346 4.97331 59.265C5.00764 59.3954 5.06796 59.5174 5.15067 59.6239C5.23337 59.7303 5.33675 59.819 5.45458 59.8845C5.57241 59.9499 5.70226 59.9909 5.83633 60.0049C5.97041 60.019 6.10593 60.0057 6.23476 59.966C6.36359 59.9264 6.48306 59.861 6.586 59.774L9 57.9V58.982C9 59.2472 9.10536 59.5016 9.29289 59.6891C9.48043 59.8766 9.73478 59.982 10 59.982C10.2652 59.982 10.5196 59.8766 10.7071 59.6891C10.8946 59.5016 11 59.2472 11 58.982V57.942L13.36 59.772C13.5696 59.9327 13.8341 60.0043 14.0961 59.9714C14.3582 59.9385 14.5967 59.8036 14.76 59.596C14.9226 59.3869 14.9956 59.1219 14.9629 58.859C14.9303 58.5962 14.7948 58.357 14.586 58.194L11 55.414V50H16.972C17.5024 50 18.0111 49.7893 18.3862 49.4142C18.7613 49.0391 18.972 48.5304 18.972 48C18.972 47.4696 18.7613 46.9609 18.3862 46.5858C18.0111 46.2107 17.5024 46 16.972 46H5L5.004 29.984C5.004 29.4536 4.79329 28.9449 4.41821 28.5698C4.04314 28.1947 3.53443 27.984 3.004 27.984ZM27 32C26.4696 32 25.9609 32.2107 25.5858 32.5858C25.2107 32.9609 25 33.4696 25 34C25 34.5304 25.2107 35.0391 25.5858 35.4142C25.9609 35.7893 26.4696 36 27 36H31V58C31 58.5304 31.2107 59.0391 31.5858 59.4142C31.9609 59.7893 32.4696 60 33 60C33.5304 60 34.0391 59.7893 34.4142 59.4142C34.7893 59.0391 35 58.5304 35 58V36H53V58C53 58.5304 53.2107 59.0391 53.5858 59.4142C53.9609 59.7893 54.4696 60 55 60C55.5304 60 56.0391 59.7893 56.4142 59.4142C56.7893 59.0391 57 58.5304 57 58V36H61C61.5304 36 62.0391 35.7893 62.4142 35.4142C62.7893 35.0391 63 34.5304 63 34C63 33.4696 62.7893 32.9609 62.4142 32.5858C62.0391 32.2107 61.5304 32 61 32H27Z" fill="#181A20"/>
</g>
</svg>
